<svg xmlns="http://www.w3.org/2000/svg" viewBox="0 0 1440 320"><path fill="#0099ff" fill-opacity="0.1" d="M0,224L34.3,229.3C68.6,235,137,245,206,229.3C274.3,213,343,171,411,165.3C480,160,549,192,617,213.3C685.7,235,754,245,823,229.3C891.4,213,960,171,1029,149.3C1097.1,128,1166,128,1234,117.3C1302.9,107,1371,85,1406,74.7L1440,64L1440,0L1405.7,0C1371.4,0,1303,0,1234,0C1165.7,0,1097,0,1029,0C960,0,891,0,823,0C754.3,0,686,0,617,0C548.6,0,480,0,411,0C342.9,0,274,0,206,0C137.1,0,69,0,34,0L0,0Z"></path></svg>