<?xml version="1.0" standalone="no"?><svg xmlns="http://www.w3.org/2000/svg" viewBox="0 0 1440 320"><path fill="#0099ff" fill-opacity="1" d="M0,128L40,133.3C80,139,160,149,240,154.7C320,160,400,160,480,144C560,128,640,96,720,96C800,96,880,128,960,154.7C1040,181,1120,203,1200,218.7C1280,235,1360,245,1400,250.7L1440,256L1440,320L1400,320C1360,320,1280,320,1200,320C1120,320,1040,320,960,320C880,320,800,320,720,320C640,320,560,320,480,320C400,320,320,320,240,320C160,320,80,320,40,320L0,320Z"></path></svg>