<svg xmlns="http://www.w3.org/2000/svg" viewBox="0 0 1440 320"><path fill="#0099ff" fill-opacity="0.1" d="M0,224L34.3,229.3C68.6,235,137,245,206,229.3C274.3,213,343,171,411,165.3C480,160,549,192,617,213.3C685.7,235,754,245,823,229.3C891.4,213,960,171,1029,149.3C1097.1,128,1166,128,1234,117.3C1302.9,107,1371,85,1406,74.7L1440,64L1440,320L1405.7,320C1371.4,320,1303,320,1234,320C1165.7,320,1097,320,1029,320C960,320,891,320,823,320C754.3,320,686,320,617,320C548.6,320,480,320,411,320C342.9,320,274,320,206,320C137.1,320,69,320,34,320L0,320Z"></path></svg>